{
    "asset": {
        "version": "2.0",
        "generator": "Open Asset Import Library (assimp v5.2.cf7d3637)"
    },
    "extensionsUsed": [
        "KHR_materials_volume",
        "FB_ngon_encoding"
    ],
    "accessors": [
        {
            "bufferView": 0,
            "byteOffset": 0,
            "componentType": 5126,
            "count": 4392,
            "type": "VEC3",
            "max": [
                54.95960235595703,
                45.0,
                58.0
            ],
            "min": [
                -54.95960235595703,
                -45.0,
                0.0
            ]
        },
        {
            "bufferView": 1,
            "byteOffset": 0,
            "componentType": 5126,
            "count": 4392,
            "type": "VEC3",
            "max": [
                1.0,
                1.0,
                1.0
            ],
            "min": [
                -1.0,
                -1.0,
                -1.0
            ]
        },
        {
            "bufferView": 2,
            "byteOffset": 0,
            "componentType": 5125,
            "count": 4392,
            "type": "SCALAR",
            "max": [
                4391
            ],
            "min": [
                0
            ]
        }
    ],
    "buffers": [
        {
            "byteLength": 122976,
            "uri": "result.bin"
        }
    ],
    "bufferViews": [
        {
            "buffer": 0,
            "byteOffset": 0,
            "byteLength": 52704,
            "target": 34962
        },
        {
            "buffer": 0,
            "byteOffset": 52704,
            "byteLength": 52704,
            "target": 34962
        },
        {
            "buffer": 0,
            "byteOffset": 105408,
            "byteLength": 17568,
            "target": 34963
        }
    ],
    "materials": [
        {
            "name": "material",
            "pbrMetallicRoughness": {
                "baseColorFactor": [
                    0.8227857351303101,
                    0.8227857351303101,
                    0.8227857351303101,
                    1.0
                ],
                "metallicFactor": 0.5,
                "roughnessFactor": 0.5
            }
        },
        {
            "name": "material"
        }
    ],
    "meshes": [
        {
            "name": "meshes[0]",
            "primitives": [
                {
                    "mode": 4,
                    "material": 0,
                    "indices": 2,
                    "attributes": {
                        "POSITION": 0,
                        "NORMAL": 1
                    }
                }
            ]
        }
    ],
    "nodes": [
        {
            "name": "nodes[1]",
            "children": [
                1
            ]
        },
        {
            "name": "nodes[0]",
            "mesh": 0
        }
    ],
    "scenes": [
        {
            "nodes": [
                0
            ]
        }
    ],
    "scene": 0
}